<svg id="Layer_1" data-name="Layer 1" 
    xmlns="http://www.w3.org/2000/svg" viewBox="0 0 514.13 209.55">
    <defs>
        <style>.cls-1{fill:#222;}.cls-2{fill:#fdda00;}</style>
    </defs>
    <title>Manufacturing BrochureArtboard 2 copy</title>
    <path class="cls-1" d="M246.43,155.16a2.28,2.28,0,0,1-2-1.52l-13.15-43.16a1.11,1.11,0,0,1,1.12-1.52h14.5a2.09,2.09,0,0,1,1.94,1.55l6.75,29.67a7.38,7.38,0,0,0,.44,1.55,7.7,7.7,0,0,0,.47-1.54l7.34-29.68a2.14,2.14,0,0,1,2-1.54h16.15a2.13,2.13,0,0,1,2,1.54l7.25,29.5a7.63,7.63,0,0,0,.47,1.54,7.62,7.62,0,0,0,.47-1.54l7.33-29.5a2.14,2.14,0,0,1,2-1.54h12.29a1.1,1.1,0,0,1,1.11,1.51l-13.59,43.17a2.3,2.3,0,0,1-2.06,1.51H283a2.17,2.17,0,0,1-2-1.54l-7.58-29.13a7.52,7.52,0,0,0-.49-1.54,7.61,7.61,0,0,0-.52,1.53l-8.16,29.15a2.22,2.22,0,0,1-2,1.53Z"/>
    <path class="cls-1" d="M354.26,150.1c-4,4.6-8.56,6.44-14.44,6.44-9.94,0-17.31-6.44-17.31-16.66V110.56a1.59,1.59,0,0,1,1.59-1.59h14.31a1.59,1.59,0,0,1,1.59,1.59v24a28.14,28.14,0,0,0,.22,3.16s1.07,7.82,6.5,7.82c8.65,0,7.55-9.48,7.55-10V110.56a1.59,1.59,0,0,1,1.59-1.59h14.31a1.59,1.59,0,0,1,1.59,1.59v31.15c0,.87,0,2.3,0,3.17,0,0,.07,5.32.53,10.29H356.12a1.7,1.7,0,0,1-1.67-1.58Z"/>
    <path class="cls-1" d="M385.93,101.06a1.59,1.59,0,0,1-1.59-1.59V90.31a1.59,1.59,0,0,1,1.59-1.59h14.49A1.59,1.59,0,0,1,402,90.31v9.16a1.59,1.59,0,0,1-1.59,1.59Zm.09,54.11a1.59,1.59,0,0,1-1.59-1.59v-43A1.59,1.59,0,0,1,386,109h14.31a1.59,1.59,0,0,1,1.59,1.59v43a1.59,1.59,0,0,1-1.59,1.59Z"/>
    <path class="cls-1" d="M416.29,155.16a1.59,1.59,0,0,1-1.59-1.59V90.31a1.59,1.59,0,0,1,1.59-1.59h14.31a1.59,1.59,0,0,1,1.59,1.59v63.26a1.59,1.59,0,0,1-1.59,1.59Zm16.76-24.43a2.4,2.4,0,0,1,.12-2.59l14-17.93A3.68,3.68,0,0,1,449.7,109h15.88c.87,0,1.14.56.59,1.23l-13.66,16.95a2.3,2.3,0,0,0-.11,2.55l16.17,24.14c.49.72.17,1.32-.7,1.32H450.34a3.25,3.25,0,0,1-2.44-1.33Z"/>
    <path class="cls-1" d="M230.69,56.94a2,2,0,0,0-2-2.56H67.4a2,2,0,0,0-2,2.56l24.65,96.17a3.05,3.05,0,0,0,3,2h100l8.42,11.1a6,6,0,0,0,4.24,2.11h17.8c1.45,0,1.91-.94,1-2.09l-16.44-21.08a11.35,11.35,0,0,0,.41-1.73,19.35,19.35,0,0,1,.57-2.56Zm-31.44,21L188.53,120l-7-8.94a6.14,6.14,0,0,0-4.27-2.09H160.72c-1.45,0-1.92.95-1,2.11l17.56,23.13H111.18s-.28-1.16-.64-2.57L96.84,77.9a2,2,0,0,1,2-2.56h98.43A2,2,0,0,1,199.25,77.9Z"/>
    <path class="cls-2" d="M263.48,76.92H245.89a.53.53,0,0,1-.53-.53V41.7a.53.53,0,0,0-.53-.53H208.18a.53.53,0,0,1-.53-.53V23.05a.53.53,0,0,1,.53-.53h55.31a.53.53,0,0,1,.53.53V76.39A.53.53,0,0,1,263.48,76.92Z"/>
    <path class="cls-2" d="M101.16,187H45.85a.53.53,0,0,1-.53-.53V133.16a.53.53,0,0,1,.53-.53H63.44a.53.53,0,0,1,.53.53v34.69a.53.53,0,0,0,.53.53h36.66a.53.53,0,0,1,.53.53v17.59A.53.53,0,0,1,101.16,187Z"/>
</svg>