<svg id="Layer_1" data-name="Layer 1" 
    xmlns="http://www.w3.org/2000/svg" viewBox="0 0 314.13 209.55">
    <defs>
        <style>.cls-1{fill:#212026;}.cls-2{fill:#fdda00;}</style>
    </defs>
    <title>Qwuik-logo</title>
    <path class="cls-1" d="M230.69,56.94a2,2,0,0,0-2-2.56H67.4a2,2,0,0,0-2,2.56l24.65,96.17a3.05,3.05,0,0,0,3,2h100l8.42,11.1a6,6,0,0,0,4.24,2.11h17.8c1.45,0,1.91-.94,1-2.09l-16.44-21.08a11.35,11.35,0,0,0,.41-1.73,19.35,19.35,0,0,1,.57-2.56Zm-31.44,21L188.53,120l-7-8.94a6.14,6.14,0,0,0-4.27-2.09H160.72c-1.45,0-1.92.95-1,2.11l17.56,23.13H111.18s-.28-1.16-.64-2.57L96.84,77.9a2,2,0,0,1,2-2.56h98.43A2,2,0,0,1,199.25,77.9Z"/>
    <path class="cls-2" d="M263.48,76.92H245.89a.53.53,0,0,1-.53-.53V41.7a.53.53,0,0,0-.53-.53H208.18a.53.53,0,0,1-.53-.53V23.05a.53.53,0,0,1,.53-.53h55.31a.53.53,0,0,1,.53.53V76.39A.53.53,0,0,1,263.48,76.92Z"/>
    <path class="cls-2" d="M101.16,187H45.85a.53.53,0,0,1-.53-.53V133.16a.53.53,0,0,1,.53-.53H63.44a.53.53,0,0,1,.53.53v34.69a.53.53,0,0,0,.53.53h36.66a.53.53,0,0,1,.53.53v17.59A.53.53,0,0,1,101.16,187Z"/>
</svg>